<svg width="90" height="17" viewBox="0 0 90 17" fill="none" xmlns="http://www.w3.org/2000/svg">
<path d="M12.6523 11.9883H6.13672L8.43359 11.0625L8.38672 9.07031L5.19922 9.39844L5.16406 12.0703L7.88281 12.9961H0.898438C1.29688 12.8398 1.70312 12.6797 2.11719 12.5156C2.53125 12.3516 2.9375 12.2031 3.33594 12.0703L3.14844 5.58984C2.75 5.43359 2.35938 5.26172 1.97656 5.07422C1.58594 4.87891 1.19531 4.69141 0.804688 4.51172L7.30859 4.58203L5.28125 5.53125L5.22266 8.13281H8.35156L8.25781 4.64062L5.86719 3.57422L12.4297 3.64453L10.3789 4.59375L10.2031 11.0625L12.6523 11.9883ZM15.5469 3.71484C15.5469 3.88672 15.5117 4.05078 15.4414 4.20703C15.3789 4.35547 15.2891 4.48828 15.1719 4.60547C15.0625 4.71484 14.9297 4.80469 14.7734 4.875C14.625 4.9375 14.4648 4.96875 14.293 4.96875C14.1211 4.96875 13.9609 4.9375 13.8125 4.875C13.6641 4.80469 13.5312 4.71484 13.4141 4.60547C13.3047 4.48828 13.2148 4.35547 13.1445 4.20703C13.082 4.05078 13.0508 3.88672 13.0508 3.71484C13.0508 3.54297 13.082 3.38281 13.1445 3.23438C13.2148 3.08594 13.3047 2.95703 13.4141 2.84766C13.5312 2.73047 13.6641 2.64063 13.8125 2.57812C13.9609 2.50781 14.1211 2.47266 14.293 2.47266C14.4648 2.47266 14.625 2.50781 14.7734 2.57812C14.9297 2.64063 15.0625 2.73047 15.1719 2.84766C15.2891 2.95703 15.3789 3.08594 15.4414 3.23438C15.5117 3.38281 15.5469 3.54297 15.5469 3.71484ZM16.918 12.0234L11.668 11.9297L13.6133 10.7227L13.4492 6.83203L11.2109 5.77734H15.5117L15.125 10.8047L16.918 12.0234ZM25.4727 13.418L21.418 13.9805L21.4766 12.9609C21.25 13.0156 21.0195 13.0547 20.7852 13.0781C20.5508 13.1016 20.3164 13.1133 20.082 13.1133C19.6211 13.1133 19.1562 13.0586 18.6875 12.9492C18.2266 12.8477 17.8086 12.6797 17.4336 12.4453C17.0664 12.2109 16.7656 11.9062 16.5312 11.5312C16.2969 11.1562 16.1797 10.6992 16.1797 10.1602C16.1797 9.72266 16.2734 9.33203 16.4609 8.98828C16.6484 8.63672 16.8945 8.33984 17.1992 8.09766C17.5039 7.84766 17.8477 7.65625 18.2305 7.52344C18.6211 7.39062 19.0195 7.32422 19.4258 7.32422C19.8242 7.32422 20.2227 7.36719 20.6211 7.45312C21.0273 7.53125 21.4062 7.65234 21.7578 7.81641L21.9688 3.77344L19.3789 2.54297L24.207 2.88281L22.9414 12.8203L25.4727 13.418ZM21.6875 8.90625C21.4609 8.75 21.1797 8.63672 20.8438 8.56641C20.5078 8.49609 20.2031 8.46094 19.9297 8.46094C19.6484 8.46094 19.3867 8.50781 19.1445 8.60156C18.9102 8.69531 18.707 8.82812 18.5352 9C18.3711 9.17188 18.2422 9.37891 18.1484 9.62109C18.0547 9.85547 18.0078 10.1133 18.0078 10.3945C18.0078 10.6992 18.082 10.9648 18.2305 11.1914C18.3789 11.4102 18.5703 11.5938 18.8047 11.7422C19.0391 11.8828 19.2969 11.9844 19.5781 12.0469C19.8594 12.1172 20.1289 12.1523 20.3867 12.1523C20.7773 12.1523 21.1641 12.0742 21.5469 11.918L21.6875 8.90625ZM31.0391 9.86719C31.0391 9.92188 31.0352 9.97656 31.0273 10.0312C31.0273 10.0859 31.0273 10.1406 31.0273 10.1953L26.2578 10.2891C26.3594 10.75 26.5898 11.0898 26.9492 11.3086C27.3086 11.5273 27.7148 11.6367 28.168 11.6367C28.3867 11.6367 28.6094 11.6211 28.8359 11.5898C29.0625 11.5586 29.2852 11.5078 29.5039 11.4375C29.7227 11.3672 29.9297 11.2773 30.125 11.168C30.3203 11.0508 30.4961 10.9141 30.6523 10.7578C30.5664 11.0859 30.4219 11.375 30.2188 11.625C30.0156 11.875 29.7734 12.082 29.4922 12.2461C29.2188 12.4102 28.918 12.5312 28.5898 12.6094C28.2695 12.6953 27.9492 12.7383 27.6289 12.7383C27.1914 12.7383 26.7734 12.6602 26.375 12.5039C25.9844 12.3477 25.6406 12.1328 25.3438 11.8594C25.0547 11.5859 24.8242 11.2578 24.6523 10.875C24.4805 10.4922 24.3945 10.0742 24.3945 9.62109C24.3945 9.14453 24.4922 8.71094 24.6875 8.32031C24.8828 7.92969 25.1406 7.59766 25.4609 7.32422C25.7812 7.04297 26.1523 6.82812 26.5742 6.67969C26.9961 6.53125 27.4375 6.45703 27.8984 6.45703C28.3828 6.45703 28.8164 6.54688 29.1992 6.72656C29.5898 6.90625 29.9219 7.15234 30.1953 7.46484C30.4688 7.77734 30.6758 8.14062 30.8164 8.55469C30.9648 8.96094 31.0391 9.39844 31.0391 9.86719ZM29.2461 9.26953C29.2305 9.05859 29.1875 8.85547 29.1172 8.66016C29.0469 8.46484 28.9492 8.29297 28.8242 8.14453C28.6992 7.99609 28.5469 7.87891 28.3672 7.79297C28.1953 7.69922 27.9922 7.65234 27.7578 7.65234C27.5234 7.65234 27.3203 7.69531 27.1484 7.78125C26.9766 7.86719 26.832 7.98438 26.7148 8.13281C26.5977 8.27344 26.5 8.44141 26.4219 8.63672C26.3516 8.82422 26.2969 9.01953 26.2578 9.22266L29.2461 9.26953ZM39.5 9.16406C39.5 9.70312 39.3633 10.1602 39.0898 10.5352C38.8242 10.9023 38.4805 11.2031 38.0586 11.4375C37.6445 11.6641 37.1914 11.832 36.6992 11.9414C36.207 12.043 35.7383 12.0938 35.293 12.0938C34.8555 12.0938 34.3984 12.0391 33.9219 11.9297C33.4531 11.8203 33.0195 11.6484 32.6211 11.4141C32.2305 11.1797 31.9062 10.8789 31.6484 10.5117C31.3984 10.1367 31.2734 9.6875 31.2734 9.16406C31.2734 8.59375 31.4102 8.12109 31.6836 7.74609C31.957 7.37109 32.3008 7.07422 32.7148 6.85547C33.1367 6.63672 33.5977 6.48438 34.0977 6.39844C34.6055 6.3125 35.0938 6.26953 35.5625 6.26953C35.9922 6.26953 36.4375 6.32422 36.8984 6.43359C37.3672 6.54297 37.793 6.71484 38.1758 6.94922C38.5664 7.17578 38.8828 7.47266 39.125 7.83984C39.375 8.20703 39.5 8.64844 39.5 9.16406ZM37.5664 9.14062C37.5664 8.85938 37.5117 8.60156 37.4023 8.36719C37.3008 8.13281 37.1562 7.92969 36.9688 7.75781C36.7891 7.58594 36.5781 7.45312 36.3359 7.35938C36.0938 7.26562 35.8359 7.21875 35.5625 7.21875C35.2812 7.21875 35 7.26172 34.7188 7.34766C34.4375 7.42578 34.1836 7.54297 33.957 7.69922C33.7305 7.85547 33.5469 8.05469 33.4062 8.29688C33.2656 8.53125 33.1953 8.80078 33.1953 9.10547C33.1953 9.41016 33.2422 9.6875 33.3359 9.9375C33.4375 10.1875 33.5781 10.4023 33.7578 10.582C33.9453 10.7617 34.1641 10.9023 34.4141 11.0039C34.6641 11.0977 34.9414 11.1445 35.2461 11.1445C35.5742 11.1445 35.8789 11.1094 36.1602 11.0391C36.4414 10.9609 36.6875 10.8398 36.8984 10.6758C37.1094 10.5117 37.2734 10.3047 37.3906 10.0547C37.5078 9.79688 37.5664 9.49219 37.5664 9.14062ZM47.9492 11.9648L44.7383 12.5625L44.7734 11.5078C44.6875 11.6172 44.5781 11.7148 44.4453 11.8008C44.3125 11.8789 44.168 11.9453 44.0117 12C43.8633 12.0469 43.7109 12.082 43.5547 12.1055C43.3984 12.1289 43.25 12.1406 43.1094 12.1406C42.1328 12.1406 41.4297 11.9062 41 11.4375C40.5703 10.9688 40.3555 10.2617 40.3555 9.31641C40.3555 8.94922 40.3594 8.58984 40.3672 8.23828C40.375 7.88672 40.3828 7.53125 40.3906 7.17188C40.0859 6.99219 39.7773 6.81641 39.4648 6.64453C39.1523 6.47266 38.8438 6.29688 38.5391 6.11719L42.3359 6.09375C42.2812 6.65625 42.2148 7.25 42.1367 7.875C42.0664 8.49219 42.0312 9.07812 42.0312 9.63281C42.0312 10.125 42.1406 10.4844 42.3594 10.7109C42.5781 10.9375 42.9336 11.0508 43.4258 11.0508C43.6758 11.0508 43.9258 10.9805 44.1758 10.8398C44.4258 10.6992 44.625 10.5312 44.7734 10.3359L44.9258 7.33594L42.8281 6.31641L46.8594 6.28125L46.0625 11.2734L47.9492 11.9648ZM53.3867 10.0195C53.3867 10.4102 53.2969 10.7305 53.1172 10.9805C52.9375 11.2305 52.7109 11.4297 52.4375 11.5781C52.1641 11.7188 51.8594 11.8203 51.5234 11.8828C51.1875 11.9375 50.8633 11.9648 50.5508 11.9648C50.3711 11.9648 50.1719 11.9531 49.9531 11.9297C49.7422 11.8984 49.5312 11.8555 49.3203 11.8008C49.1094 11.7461 48.9023 11.6797 48.6992 11.6016C48.5039 11.5234 48.3281 11.4297 48.1719 11.3203L47.2227 12.4336L47.5859 8.84766C47.7188 9.13672 47.8867 9.41016 48.0898 9.66797C48.3008 9.92578 48.5391 10.1523 48.8047 10.3477C49.0703 10.543 49.3555 10.6992 49.6602 10.8164C49.9648 10.9258 50.2812 10.9805 50.6094 10.9805C50.6953 10.9805 50.793 10.9766 50.9023 10.9688C51.0195 10.9531 51.1289 10.9258 51.2305 10.8867C51.3398 10.8477 51.4297 10.793 51.5 10.7227C51.5703 10.6523 51.6055 10.5586 51.6055 10.4414C51.6055 10.3086 51.5352 10.1875 51.3945 10.0781C51.2539 9.96094 51.0898 9.86328 50.9023 9.78516C50.7148 9.69922 50.5273 9.62891 50.3398 9.57422C50.1523 9.51172 50.0117 9.46484 49.918 9.43359C49.6523 9.35547 49.3594 9.25 49.0391 9.11719C48.7266 8.97656 48.4336 8.8125 48.1602 8.625C47.8945 8.42969 47.6719 8.20312 47.4922 7.94531C47.3125 7.67969 47.2227 7.375 47.2227 7.03125C47.2227 6.70312 47.3008 6.41016 47.457 6.15234C47.6211 5.89453 47.8281 5.67969 48.0781 5.50781C48.3281 5.32812 48.6055 5.19531 48.9102 5.10938C49.2227 5.01562 49.5273 4.96875 49.8242 4.96875C50.293 4.96875 50.7344 5.05469 51.1484 5.22656C51.5703 5.39062 51.9531 5.62891 52.2969 5.94141L53.0234 4.53516L52.8711 8.23828C52.7305 7.97266 52.5547 7.70703 52.3438 7.44141C52.1328 7.16797 51.8984 6.92188 51.6406 6.70312C51.3828 6.48438 51.1055 6.30859 50.8086 6.17578C50.5117 6.04297 50.2031 5.97656 49.8828 5.97656C49.7891 5.97656 49.6797 5.98828 49.5547 6.01172C49.4375 6.02734 49.3242 6.05859 49.2148 6.10547C49.1133 6.15234 49.0234 6.21875 48.9453 6.30469C48.875 6.38281 48.8398 6.48438 48.8398 6.60938C48.8398 6.75781 48.8945 6.88672 49.0039 6.99609C49.1211 7.10547 49.2578 7.20312 49.4141 7.28906C49.5781 7.36719 49.7422 7.4375 49.9062 7.5C50.0781 7.55469 50.2188 7.59766 50.3281 7.62891C50.6094 7.72266 50.9258 7.83203 51.2773 7.95703C51.6289 8.08203 51.9609 8.23438 52.2734 8.41406C52.5859 8.59375 52.8477 8.81641 53.0586 9.08203C53.2773 9.33984 53.3867 9.65234 53.3867 10.0195Z" fill="black"/>
<path d="M68.2461 7.96875L66.0547 8.92969L66.3828 12.4805L65.0938 11.3203C64.9062 11.5469 64.6836 11.7344 64.4258 11.8828C64.1758 12.0312 63.9062 12.1484 63.6172 12.2344C63.3359 12.3203 63.0469 12.3828 62.75 12.4219C62.4531 12.4609 62.1641 12.4805 61.8828 12.4805C61.2266 12.4805 60.625 12.3711 60.0781 12.1523C59.5391 11.9336 59.0742 11.6289 58.6836 11.2383C58.3008 10.8398 58 10.3672 57.7812 9.82031C57.5703 9.27344 57.4648 8.67578 57.4648 8.02734C57.4727 7.29297 57.6094 6.65625 57.875 6.11719C58.1406 5.57812 58.4961 5.12891 58.9414 4.76953C59.3867 4.41016 59.9062 4.14453 60.5 3.97266C61.1016 3.79297 61.7422 3.70312 62.4219 3.70312C62.7891 3.70312 63.1719 3.76172 63.5703 3.87891C63.9688 3.98828 64.3203 4.13672 64.625 4.32422L66.1484 2.84766L65.7383 7.81641L65.2461 6.89062C65.1133 6.64062 64.9531 6.40234 64.7656 6.17578C64.5781 5.94141 64.3672 5.73828 64.1328 5.56641C63.9062 5.38672 63.6602 5.24609 63.3945 5.14453C63.1289 5.04297 62.8516 4.99219 62.5625 4.99219C62.0938 4.99219 61.6875 5.07812 61.3438 5.25C61 5.41406 60.7109 5.64062 60.4766 5.92969C60.25 6.21875 60.0781 6.55469 59.9609 6.9375C59.8516 7.3125 59.7969 7.71484 59.7969 8.14453C59.7969 8.53516 59.8516 8.92188 59.9609 9.30469C60.0781 9.6875 60.2461 10.0312 60.4648 10.3359C60.6836 10.6328 60.957 10.875 61.2852 11.0625C61.6133 11.25 61.9961 11.3438 62.4336 11.3438C62.9961 11.3438 63.4414 11.2031 63.7695 10.9219C64.0977 10.6406 64.2617 10.2148 64.2617 9.64453C64.2617 9.54297 64.2578 9.44141 64.25 9.33984C64.2422 9.23828 64.2305 9.14062 64.2148 9.04688L61.3438 7.94531L68.2461 7.96875ZM71.1406 3.71484C71.1406 3.88672 71.1055 4.05078 71.0352 4.20703C70.9727 4.35547 70.8828 4.48828 70.7656 4.60547C70.6562 4.71484 70.5234 4.80469 70.3672 4.875C70.2188 4.9375 70.0586 4.96875 69.8867 4.96875C69.7148 4.96875 69.5547 4.9375 69.4062 4.875C69.2578 4.80469 69.125 4.71484 69.0078 4.60547C68.8984 4.48828 68.8086 4.35547 68.7383 4.20703C68.6758 4.05078 68.6445 3.88672 68.6445 3.71484C68.6445 3.54297 68.6758 3.38281 68.7383 3.23438C68.8086 3.08594 68.8984 2.95703 69.0078 2.84766C69.125 2.73047 69.2578 2.64063 69.4062 2.57812C69.5547 2.50781 69.7148 2.47266 69.8867 2.47266C70.0586 2.47266 70.2188 2.50781 70.3672 2.57812C70.5234 2.64063 70.6562 2.73047 70.7656 2.84766C70.8828 2.95703 70.9727 3.08594 71.0352 3.23438C71.1055 3.38281 71.1406 3.54297 71.1406 3.71484ZM72.5117 12.0234L67.2617 11.9297L69.207 10.7227L69.043 6.83203L66.8047 5.77734H71.1055L70.7188 10.8047L72.5117 12.0234ZM78.4766 2.78906C78.4766 3.03906 78.3906 3.25 78.2188 3.42188C78.0469 3.58594 77.8359 3.66797 77.5859 3.66797C77.3359 3.66797 77.1133 3.58594 76.918 3.42188C76.7305 3.25781 76.6367 3.04297 76.6367 2.77734C76.6367 2.51172 76.7422 2.29297 76.9531 2.12109C76.8984 1.94141 76.8047 1.79297 76.6719 1.67578C76.5391 1.55078 76.375 1.48828 76.1797 1.48828C75.9297 1.48828 75.7305 1.57422 75.582 1.74609C75.4414 1.91016 75.3359 2.11328 75.2656 2.35547C75.1953 2.58984 75.1523 2.83594 75.1367 3.09375C75.1211 3.35156 75.1133 3.56641 75.1133 3.73828C75.1133 4.11328 75.1289 4.48828 75.1602 4.86328C75.1914 5.23047 75.2266 5.60156 75.2656 5.97656H77.5625V7.04297H75.4414L76.0625 12.4102C76.0781 12.5898 76.0938 12.7695 76.1094 12.9492C76.1328 13.1367 76.1445 13.3203 76.1445 13.5C76.1445 13.9062 76.0898 14.3047 75.9805 14.6953C75.8711 15.0938 75.7031 15.4453 75.4766 15.75C75.2578 16.0625 74.9766 16.3125 74.6328 16.5C74.2969 16.6953 73.9023 16.793 73.4492 16.793C73.1367 16.793 72.8359 16.7344 72.5469 16.6172C72.2656 16.5078 72.0117 16.3516 71.7852 16.1484C71.5664 15.9453 71.3906 15.7031 71.2578 15.4219C71.125 15.1484 71.0586 14.8516 71.0586 14.5312C71.0586 14.2734 71.1445 14.0625 71.3164 13.8984C71.4883 13.7344 71.6992 13.6523 71.9492 13.6523C72.0664 13.6523 72.1797 13.6719 72.2891 13.7109C72.4062 13.7578 72.5078 13.8203 72.5938 13.8984C72.6875 13.9766 72.7578 14.0664 72.8047 14.168C72.8594 14.2773 72.8867 14.3945 72.8867 14.5195C72.8867 14.7695 72.793 14.9883 72.6055 15.1758C72.6602 15.3477 72.7539 15.4922 72.8867 15.6094C73.0195 15.7344 73.1758 15.7969 73.3555 15.7969C73.5664 15.7969 73.7383 15.7305 73.8711 15.5977C74.0117 15.4727 74.1211 15.3164 74.1992 15.1289C74.2773 14.9492 74.3281 14.7539 74.3516 14.543C74.3828 14.3398 74.3984 14.1602 74.3984 14.0039C74.3984 13.707 74.3789 13.4102 74.3398 13.1133C74.3086 12.8164 74.2695 12.5195 74.2227 12.2227L74.2109 12.2109L73.5781 7.04297H71.832V5.97656H73.4609C73.4219 5.67969 73.3906 5.38672 73.3672 5.09766C73.3516 4.80859 73.3438 4.51562 73.3438 4.21875C73.3438 3.78125 73.3867 3.33984 73.4727 2.89453C73.5586 2.44922 73.707 2.05078 73.918 1.69922C74.1289 1.33984 74.4062 1.04688 74.75 0.820312C75.1016 0.59375 75.5391 0.480469 76.0625 0.480469C76.3828 0.480469 76.6875 0.539062 76.9766 0.65625C77.2656 0.773438 77.5195 0.9375 77.7383 1.14844C77.9648 1.35156 78.1445 1.59375 78.2773 1.875C78.4102 2.15625 78.4766 2.46094 78.4766 2.78906ZM83.1289 4.42969L83.0234 5.53125C82.6406 5.5 82.2617 5.47266 81.8867 5.44922C81.5117 5.41797 81.1328 5.38281 80.75 5.34375C80.6875 6.08594 80.6211 6.82422 80.5508 7.55859C80.4805 8.29297 80.4102 9.03125 80.3398 9.77344C80.3398 9.8125 80.3359 9.85156 80.3281 9.89062C80.3203 9.92969 80.3164 9.96875 80.3164 10.0078C80.3164 10.1172 80.3281 10.2305 80.3516 10.3477C80.375 10.457 80.4141 10.5586 80.4688 10.6523C80.5234 10.7383 80.5938 10.8125 80.6797 10.875C80.7734 10.9297 80.8867 10.957 81.0195 10.957C81.2773 10.957 81.5039 10.8984 81.6992 10.7812C81.8945 10.6562 82.0586 10.5 82.1914 10.3125C82.3242 10.125 82.4297 9.91797 82.5078 9.69141C82.5859 9.45703 82.6367 9.22656 82.6602 9C82.7539 9.36719 82.8008 9.73047 82.8008 10.0898C82.8008 10.4336 82.7461 10.7461 82.6367 11.0273C82.5273 11.3008 82.375 11.5391 82.1797 11.7422C81.9844 11.9375 81.75 12.0898 81.4766 12.1992C81.2031 12.3086 80.9023 12.3633 80.5742 12.3633C80.2305 12.3633 79.9297 12.3047 79.6719 12.1875C79.4141 12.0703 79.1992 11.9102 79.0273 11.707C78.8633 11.4961 78.7383 11.25 78.6523 10.9688C78.5742 10.6875 78.5352 10.3867 78.5352 10.0664C78.5352 10.0039 78.5352 9.94531 78.5352 9.89062C78.5352 9.83594 78.5391 9.77734 78.5469 9.71484C78.6094 8.95703 78.668 8.21094 78.7227 7.47656C78.7852 6.73438 78.8398 5.98438 78.8867 5.22656C78.6758 5.21094 78.4648 5.19531 78.2539 5.17969C78.0508 5.15625 77.8438 5.13281 77.6328 5.10938L77.6797 4.18359C77.8438 4.17578 78.0156 4.14844 78.1953 4.10156C78.375 4.05469 78.5469 3.99219 78.7109 3.91406C78.8828 3.83594 79.0391 3.74219 79.1797 3.63281C79.3281 3.52344 79.4492 3.39844 79.543 3.25781C79.6289 3.11719 79.707 2.96484 79.7773 2.80078C79.8555 2.63672 79.9219 2.46484 79.9766 2.28516C80.0391 2.10547 80.0898 1.92969 80.1289 1.75781C80.168 1.57812 80.1953 1.40625 80.2109 1.24219L81.1719 1.26562L80.8672 4.19531L83.1289 4.42969ZM89.2227 10.0195C89.2227 10.4102 89.1328 10.7305 88.9531 10.9805C88.7734 11.2305 88.5469 11.4297 88.2734 11.5781C88 11.7188 87.6953 11.8203 87.3594 11.8828C87.0234 11.9375 86.6992 11.9648 86.3867 11.9648C86.207 11.9648 86.0078 11.9531 85.7891 11.9297C85.5781 11.8984 85.3672 11.8555 85.1562 11.8008C84.9453 11.7461 84.7383 11.6797 84.5352 11.6016C84.3398 11.5234 84.1641 11.4297 84.0078 11.3203L83.0586 12.4336L83.4219 8.84766C83.5547 9.13672 83.7227 9.41016 83.9258 9.66797C84.1367 9.92578 84.375 10.1523 84.6406 10.3477C84.9062 10.543 85.1914 10.6992 85.4961 10.8164C85.8008 10.9258 86.1172 10.9805 86.4453 10.9805C86.5312 10.9805 86.6289 10.9766 86.7383 10.9688C86.8555 10.9531 86.9648 10.9258 87.0664 10.8867C87.1758 10.8477 87.2656 10.793 87.3359 10.7227C87.4062 10.6523 87.4414 10.5586 87.4414 10.4414C87.4414 10.3086 87.3711 10.1875 87.2305 10.0781C87.0898 9.96094 86.9258 9.86328 86.7383 9.78516C86.5508 9.69922 86.3633 9.62891 86.1758 9.57422C85.9883 9.51172 85.8477 9.46484 85.7539 9.43359C85.4883 9.35547 85.1953 9.25 84.875 9.11719C84.5625 8.97656 84.2695 8.8125 83.9961 8.625C83.7305 8.42969 83.5078 8.20312 83.3281 7.94531C83.1484 7.67969 83.0586 7.375 83.0586 7.03125C83.0586 6.70312 83.1367 6.41016 83.293 6.15234C83.457 5.89453 83.6641 5.67969 83.9141 5.50781C84.1641 5.32812 84.4414 5.19531 84.7461 5.10938C85.0586 5.01562 85.3633 4.96875 85.6602 4.96875C86.1289 4.96875 86.5703 5.05469 86.9844 5.22656C87.4062 5.39062 87.7891 5.62891 88.1328 5.94141L88.8594 4.53516L88.707 8.23828C88.5664 7.97266 88.3906 7.70703 88.1797 7.44141C87.9688 7.16797 87.7344 6.92188 87.4766 6.70312C87.2188 6.48438 86.9414 6.30859 86.6445 6.17578C86.3477 6.04297 86.0391 5.97656 85.7188 5.97656C85.625 5.97656 85.5156 5.98828 85.3906 6.01172C85.2734 6.02734 85.1602 6.05859 85.0508 6.10547C84.9492 6.15234 84.8594 6.21875 84.7812 6.30469C84.7109 6.38281 84.6758 6.48438 84.6758 6.60938C84.6758 6.75781 84.7305 6.88672 84.8398 6.99609C84.957 7.10547 85.0938 7.20312 85.25 7.28906C85.4141 7.36719 85.5781 7.4375 85.7422 7.5C85.9141 7.55469 86.0547 7.59766 86.1641 7.62891C86.4453 7.72266 86.7617 7.83203 87.1133 7.95703C87.4648 8.08203 87.7969 8.23438 88.1094 8.41406C88.4219 8.59375 88.6836 8.81641 88.8945 9.08203C89.1133 9.33984 89.2227 9.65234 89.2227 10.0195Z" fill="#FFA500"/>
</svg>
